<svg xmlns="http://www.w3.org/2000/svg" width="32" height="32" viewBox="0 0 32 32"><g transform="translate(-4 -4)"><path d="M35.689,16.866H34.4V16.8H20v6.4h9.042a9.607,9.607,0,1,1-2.674-10.369l4.526-4.526A15.984,15.984,0,1,0,36,20,16.109,16.109,0,0,0,35.689,16.866Z" fill="#fbc02d"/><path d="M6.306,12.553l5.257,3.855A9.581,9.581,0,0,1,26.83,12.831l4.526-4.526a15.969,15.969,0,0,0-25.05,4.247Z" transform="translate(-0.461)" fill="#e53935"/><path d="M20.439,40.811a15.925,15.925,0,0,0,10.727-4.154l-4.952-4.19a9.575,9.575,0,0,1-14.8-4.413L6.2,32.074A15.987,15.987,0,0,0,20.439,40.811Z" transform="translate(-0.439 -4.811)" fill="#4caf50"/><path d="M39.689,20.066,39.676,20H24v6.4h9.042a9.632,9.632,0,0,1-3.27,4.457l0,0,4.952,4.19A15.477,15.477,0,0,0,40,23.2,16.109,16.109,0,0,0,39.689,20.066Z" transform="translate(-4 -3.2)" fill="#1565c0"/></g></svg>